<?xml version="1.0" encoding="UTF-8"?>
<svg id="Layer_2" data-name="Layer 2" xmlns="http://www.w3.org/2000/svg" viewBox="0 0 383.33 106.05">
  <g id="Layer_1-2" data-name="Layer 1">
    <g>
      <path d="M383.33,8.71l-4.31-8.71H68.27l-1.26,1.74,4.31,8.71h180.86v11.65c-5.55-1.48-11.27-2.22-17.01-2.22-14.25,0-23.82,7.93-23.82,19.73,0,13.67,11.19,24.37,25.48,24.37,5.6,0,10.75-1.78,15.32-5.31l-.26,13.3c-1.82.51-3.67,1.22-5.38,2.23-2.58,1.5-5.07,3.85-6.73,7.18-2.5,5.03-1.27,12.2,2.28,16.55,3.55,4.36,9.06,6.76,14.61,7.66,5.06.83,10.31.53,15.24-.87,2.61-.74,6.74-2.99,8.36-4.95.38-.44.8-.88.84-1.31.13-1.17-.8-2.63-1.49-4-.95-1.88-3.28-5.43-3.94-4.7-4.28,4.24-10.61,6.34-16.57,5.49-4.44-.64-9.2-3.49-8.69-8.55.13-1.33.67-2.6,1.48-3.67,2.25-3.02,5.82-4.26,9.37-4.85q1.06-.17,1.93-.16v-3.75l-.02-3-.14-22.35c6.64-8.24,13.52-12.77,19.38-12.77,4.28,0,5.18,2.95,5.18,5.42,0,6.15-4.04,13.78-12.37,23.33l-.69.79,9.38,6.88h1.56l.29-.37c7.94-9.85,11.49-17.75,11.49-25.59,0-11.53-8.49-20.91-18.94-20.91-5.46,0-10.63,2.14-15.44,6.37V10.44h55.72v28.1c-3.94.71-6.66,1.67-8.32,2.91-2.17,1.82-3.27,3.74-3.27,5.71,0,6.18,10.09,16.18,15,16.18,2.37,0,3.93-.81,5.56-2.88,1.36-1.71,1.94-4.15,1.94-8.18v-2.58h27.86l-.3,30.73h11.62l-.39-69.99h13.79l1.26-1.74ZM252.25,42.6c-6.81,7.25-13.52,10.92-19.92,10.92s-9.6-3.18-9.6-8.97c0-7.93,8.44-14.65,18.42-14.65,3.64,0,7.29.36,11.1,1.09v11.6ZM357.36,38.95h-28.18V10.44h28.18v28.51Z"/>
      <g>
        <path d="M52.44,80.36h-16.91l-15.09-31.47-5.35,4.5v26.97H0V0h15.09v39.05c.5-1.43,1.19-2.94,2.09-4.55.89-1.61,1.91-3.37,3.05-5.3L38.43,0h16.48l-23.76,37.87,21.3,42.49Z"/>
        <path d="M36.16,79.36l-15.38-32.06-6.69,5.62v26.44H1V1h13.09v38.05l1.94.33c.48-1.37,1.16-2.84,2.02-4.39.89-1.6,1.91-3.38,3.04-5.27L38.98,1h14.12l-23.1,36.81,20.82,41.54h-14.66Z"/>
        <path d="M82.62,20.75c6.35,0,11.18,1.73,14.5,5.19,3.32,3.46,4.98,8.65,4.98,15.57v38.85h-10.49l-2.46-7.81h-.32c-2.07,3.07-4.26,5.32-6.58,6.74-2.32,1.43-5.44,2.14-9.36,2.14-4.92,0-8.63-1.77-11.13-5.3-2.5-3.53-3.75-7.9-3.75-13.11,0-6.13,1.84-10.74,5.51-13.81,3.67-3.07,9.01-4.74,16-5.03l8.13-.32v-2.36c0-6.21-2.43-9.31-7.28-9.31-2,0-4.1.34-6.31,1.02-2.21.68-4.53,1.7-6.96,3.05l-4.28-10.49c5.71-3.35,12.31-5.03,19.8-5.03ZM87.65,53.18l-4.71.21c-3.57.14-6.17,1-7.81,2.57-1.64,1.57-2.46,3.78-2.46,6.63,0,2.64.54,4.55,1.61,5.73,1.07,1.18,2.53,1.77,4.39,1.77,2.57,0,4.71-1.03,6.42-3.1,1.71-2.07,2.57-4.92,2.57-8.56v-5.24Z"/>
        <path d="M72.88,80.43c-4.62,0-8-1.59-10.31-4.88-2.36-3.34-3.56-7.56-3.56-12.53,0-5.8,1.73-10.18,5.15-13.04,3.49-2.91,8.67-4.52,15.4-4.8l9.09-.36v-3.32c0-8.52-4.5-10.31-8.28-10.31-2.09,0-4.31.36-6.61,1.06-1.96.6-4.03,1.47-6.16,2.59l-3.53-8.64c5.36-2.96,11.6-4.47,18.54-4.47,6.04,0,10.67,1.64,13.78,4.88,3.12,3.25,4.7,8.26,4.7,14.88v37.85h-8.76l-2.46-7.81h-1.59l-.3.44c-1.98,2.93-4.09,5.1-6.28,6.45-2.15,1.32-5.12,1.99-8.84,1.99ZM82.9,52.39c-3.8.15-6.65,1.11-8.46,2.85-1.84,1.76-2.77,4.23-2.77,7.36,0,2.92.61,5.02,1.86,6.4,1.26,1.39,2.99,2.09,5.13,2.09,2.87,0,5.29-1.17,7.19-3.47,1.86-2.24,2.8-5.34,2.8-9.2v-6.29l-5.75.26Z"/>
        <path d="M145.55,20.75c1.57,0,3.21.21,4.92.64l-1.18,14.98c-1.28-.5-2.93-.75-4.92-.75-3.57,0-6.44,1.28-8.62,3.85-2.18,2.57-3.26,6.24-3.26,11.02v29.86h-14.56V21.82h11.13l2.14,9.74h.64c1.35-2.85,3.19-5.37,5.51-7.55,2.32-2.18,5.05-3.26,8.19-3.26Z"/>
        <path d="M118.94,79.36V22.82h9.33l2.14,9.74h2.08l.27-.57c1.29-2.72,3.08-5.16,5.29-7.24,2.15-2.01,4.6-2.99,7.5-2.99,1.23,0,2.52.14,3.86.42l-1.01,12.88c-1.16-.28-2.5-.42-4.02-.42-3.86,0-7.01,1.42-9.38,4.21-2.32,2.74-3.5,6.67-3.5,11.67v28.86h-12.56Z"/>
        <path d="M154.54,21.82h15.41l8.13,29.75c.43,1.78.84,3.62,1.23,5.51.39,1.89.66,3.66.8,5.3h.32c.21-1.57.5-3.23.86-4.98.36-1.75.82-3.65,1.39-5.73l7.71-29.86h15.2l-19.59,64.75c-2.07,6.85-4.8,11.81-8.19,14.88-3.39,3.07-7.58,4.6-12.58,4.6-1.36,0-2.6-.07-3.75-.21-1.14-.14-2.25-.36-3.32-.64v-12.41c.71.21,1.5.39,2.35.54.86.14,1.68.21,2.46.21,2.5,0,4.39-.79,5.67-2.36,1.28-1.57,2.53-4.25,3.75-8.03l.86-3.32-18.73-58.01Z"/>
        <path d="M165.25,105.05c-1.3,0-2.52-.07-3.62-.21-.83-.1-1.65-.25-2.44-.43v-10.34c.38.08.78.16,1.19.23.91.15,1.8.23,2.63.23,2.8,0,4.97-.92,6.45-2.72,1.38-1.68,2.66-4.41,3.92-8.36l.95-3.65-18.4-56.98h13.28l7.93,29.02c.42,1.74.83,3.58,1.22,5.45.38,1.84.65,3.59.79,5.18l.08.91h2.11l.12-.87c.21-1.56.5-3.21.84-4.91.35-1.72.81-3.62,1.38-5.66l7.52-29.13h13.08l-19.2,63.46c-2.01,6.64-4.67,11.49-7.9,14.42-3.19,2.88-7.19,4.34-11.91,4.34Z"/>
      </g>
    </g>
  </g>
</svg>